<?xml version="1.0" encoding="UTF-8" standalone="no"?>
<svg xmlns="http://www.w3.org/2000/svg" viewBox="0 0 100 100" width="100pt" height="100pt">
  <defs>
    <clipPath id="_clipPath_mcp"><rect width="100" height="100"/></clipPath>
  </defs>
  <g clip-path="url(#_clipPath_mcp)">
    <rect width="100" height="100" fill="none"/>
      <g transform="translate(-2, -2) scale(0.52)">
      <path d="M25 97.8528L92.8822 29.9706C102.255 20.598 117.451 20.598 126.823 29.9706V29.9706C136.196 39.3431 136.196 54.5391 126.823 63.9117L75.5581 115.177" stroke="rgb(9,9,11)" stroke-width="12" stroke-linecap="round" fill="none"/>
      <path d="M76.2652 114.47L126.823 63.9117C136.196 54.5391 151.392 54.5391 160.765 63.9117L161.118 64.2652C170.491 73.6378 170.491 88.8338 161.118 98.2063L99.7248 159.6C96.6006 162.724 96.6006 167.789 99.7248 170.913L112.331 183.52" stroke="rgb(9,9,11)" stroke-width="12" stroke-linecap="round" fill="none"/>
      <path d="M109.853 46.9411L59.6482 97.1457C50.2756 106.518 50.2756 121.714 59.6482 131.087V131.087C69.0208 140.459 84.2167 140.459 93.5893 131.087L143.794 80.8822" stroke="rgb(9,9,11)" stroke-width="12" stroke-linecap="round" fill="none"/>
    </g>
  </g>
</svg>
